#define Xbitmap_width 64
#define Xbitmap_height 48
static unsigned char Xbitmap_bits[] = {
        0x00, 0x00, 0x00, 0x00, 0x00, 0x00, 0x00, 0x00, 0x00, 
        0x00, 0x00, 0x00, 0x00, 0x00, 0x00, 0x00, 0x00, 0x00, 
        0x00, 0x00, 0x00, 0x00, 0x00, 0x00, 0x00, 0x00, 0x00, 
        0x00, 0x00, 0x00, 0x00, 0x00, 0x00, 0x00, 0x00, 0x00, 
        0x00, 0x00, 0x00, 0x00, 0x00, 0x00, 0x00, 0x00, 0x00, 
        0x00, 0x00, 0x00, 0x00, 0x00, 0x00, 0x00, 0x00, 0x00, 
        0x00, 0x00, 0x00, 0x00, 0x00, 0x00, 0x00, 0x00, 0x00, 
        0x00, 0x00, 0x00, 0x00, 0x00, 0x00, 0x00, 0x00, 0x00, 
        0x00, 0x00, 0x00, 0x00, 0x00, 0x00, 0x00, 0x00, 0x00, 
        0x00, 0x00, 0x00, 0x00, 0x00, 0x00, 0x00, 0x00, 0x00, 
        0x00, 0x00, 0x00, 0x00, 0x00, 0x00, 0x00, 0x00, 0x98, 
        0x01, 0x36, 0x00, 0x00, 0x00, 0x00, 0x00, 0x98, 0x01, 
        0x36, 0x00, 0x00, 0x00, 0x00, 0x00, 0x98, 0x79, 0x36, 
        0x0f, 0x00, 0x00, 0x00, 0x00, 0xf8, 0xcd, 0xb6, 0x19, 
        0x00, 0x00, 0x00, 0x00, 0x98, 0xfd, 0xb6, 0x19, 0x00, 
        0x00, 0x00, 0x00, 0x98, 0x0d, 0xb6, 0x19, 0x00, 0x00, 
        0x00, 0x00, 0x98, 0xdd, 0xb6, 0x19, 0x00, 0x00, 0x00, 
        0x00, 0x98, 0x79, 0x36, 0x0f, 0x00, 0x00, 0x00, 0x00, 
        0x00, 0x00, 0x00, 0x00, 0x00, 0x00, 0x00, 0x00, 0x00, 
        0x00, 0x00, 0x00, 0x00, 0x00, 0x00, 0x00, 0x00, 0x00, 
        0x00, 0x00, 0x00, 0x00, 0x00, 0x00, 0x00, 0x00, 0x00, 
        0x00, 0x00, 0x00, 0x00, 0x00, 0x00, 0x00, 0x00, 0x00, 
        0x00, 0x00, 0x00, 0x00, 0x00, 0x00, 0x00, 0x00, 0x00, 
        0x00, 0x00, 0x80, 0x31, 0x03, 0xc0, 0x60, 0x00, 0x00, 
        0x00, 0x80, 0xbb, 0x03, 0xc0, 0x60, 0x00, 0x00, 0x00, 
        0x00, 0xbb, 0x79, 0xde, 0x7c, 0x00, 0x00, 0x00, 0x00, 
        0xbb, 0xcd, 0xc6, 0x66, 0x00, 0x00, 0x00, 0x00, 0xef, 
        0xcd, 0xc6, 0x66, 0x00, 0x00, 0x00, 0x00, 0xef, 0xcd, 
        0xc6, 0x66, 0x00, 0x00, 0x00, 0x00, 0xee, 0xcc, 0xc6, 
        0x66, 0x00, 0x00, 0x00, 0x00, 0xc6, 0x78, 0xc6, 0x7c, 
        0x00, 0x00, 0x00, 0x00, 0x00, 0x00, 0x00, 0x00, 0x00, 
        0x00, 0x00, 0x00, 0x00, 0x00, 0x00, 0x00, 0x00, 0x00, 
        0x00, 0x00, 0x00, 0x00, 0x00, 0x00, 0x00, 0x00, 0x00, 
        0x00, 0x00, 0x00, 0x00, 0x00, 0x00, 0x00, 0x00, 0x00, 
        0x00, 0x00, 0x00, 0x00, 0x00, 0x00, 0x00, 0x00, 0x00, 
        0x00, 0x00, 0x00, 0x00, 0x00, 0x00, 0x00, 0x00, 0x00, 
        0x00, 0x00, 0x00, 0x00, 0x00, 0x00, 0x00, 0x00, 0x00, 
        0x00, 0x00, 0x00, 0x00, 0x00, 0x00, 0x00, 0x00, 0x00, 
        0x00, 0x00, 0x00, 0x00, 0x00, 0x00, 0x00, 0x00, 0x00, 
        0x00, 0x00, 0x00, 0x00, 0x00, 0x00, 0x00, 0x00, 0x00, 
        0x00, 0x00, 0x00, 0x00, 0x00, 0x00, 0x00, 0x00, 0x00, 
        0x00, 0x00, 0x00, 0x00, 0x00, 0x00, 0x00, 0x00, 0x00, 
        0x00, 0x00, 0x00, 0x00, 0x00, 0x00};
