#define LEFT_ARROW_width 64
#define LEFT_ARROW_height 48
static unsigned char LeftArrow_bits[] = {
        0x00, 0x00, 0x00, 0x00, 0x00, 0x00, 0x00, 0x00, 0x00, 
        0x00, 0x00, 0x00, 0x00, 0x00, 0x00, 0x00, 0x00, 0x00, 
        0x00, 0x00, 0x00, 0x00, 0x00, 0x00, 0x00, 0x00, 0x00, 
        0x00, 0x00, 0x00, 0x00, 0x00, 0x00, 0x00, 0x00, 0x00, 
        0x00, 0x00, 0x00, 0x00, 0x00, 0x00, 0x00, 0x00, 0x00, 
        0x00, 0x00, 0x00, 0x00, 0x00, 0x00, 0x00, 0x01, 0x00, 
        0x00, 0x00, 0x00, 0x00, 0x00, 0x80, 0x01, 0x00, 0x00, 
        0x00, 0x00, 0x00, 0x00, 0xe0, 0x01, 0x00, 0x00, 0x00, 
        0x00, 0x00, 0x00, 0xf8, 0x01, 0x00, 0x00, 0x00, 0x00, 
        0x00, 0x00, 0xfc, 0x01, 0x00, 0x00, 0x00, 0x00, 0x00, 
        0x00, 0xff, 0x01, 0x00, 0x00, 0x00, 0x00, 0x00, 0x80, 
        0xff, 0x01, 0x00, 0x00, 0x00, 0x00, 0x00, 0xe0, 0xff, 
        0x01, 0x00, 0x00, 0x00, 0x00, 0x00, 0xf8, 0xff, 0x01, 
        0x00, 0x00, 0x00, 0x00, 0x00, 0xfc, 0xff, 0x01, 0x00, 
        0x00, 0x00, 0x00, 0x00, 0xff, 0xff, 0x01, 0x00, 0x00, 
        0x00, 0x00, 0x80, 0xff, 0xff, 0xff, 0x07, 0x06, 0x0e, 
        0x00, 0xe0, 0xff, 0xff, 0xff, 0x07, 0x06, 0x0e, 0x00, 
        0xf8, 0xff, 0xff, 0xff, 0x07, 0x06, 0x0e, 0x00, 0xfc, 
        0xff, 0xff, 0xff, 0x07, 0x06, 0x0e, 0x00, 0xff, 0xff, 
        0xff, 0xff, 0x07, 0x06, 0x0e, 0x80, 0xff, 0xff, 0xff, 
        0xff, 0x07, 0x06, 0x0e, 0xe0, 0xff, 0xff, 0xff, 0xff, 
        0x07, 0x06, 0x0e, 0x80, 0xff, 0xff, 0xff, 0xff, 0x07, 
        0x06, 0x0e, 0x00, 0xff, 0xff, 0xff, 0xff, 0x07, 0x06, 
        0x0e, 0x00, 0xfc, 0xff, 0xff, 0xff, 0x07, 0x06, 0x0e, 
        0x00, 0xf8, 0xff, 0xff, 0xff, 0x07, 0x06, 0x0e, 0x00, 
        0xe0, 0xff, 0xff, 0xff, 0x07, 0x06, 0x0e, 0x00, 0x80, 
        0xff, 0xff, 0x01, 0x00, 0x00, 0x00, 0x00, 0x00, 0xff, 
        0xff, 0x01, 0x00, 0x00, 0x00, 0x00, 0x00, 0xfc, 0xff, 
        0x01, 0x00, 0x00, 0x00, 0x00, 0x00, 0xf8, 0xff, 0x01, 
        0x00, 0x00, 0x00, 0x00, 0x00, 0xe0, 0xff, 0x01, 0x00, 
        0x00, 0x00, 0x00, 0x00, 0x80, 0xff, 0x01, 0x00, 0x00, 
        0x00, 0x00, 0x00, 0x00, 0xff, 0x01, 0x00, 0x00, 0x00, 
        0x00, 0x00, 0x00, 0xfc, 0x01, 0x00, 0x00, 0x00, 0x00, 
        0x00, 0x00, 0xf8, 0x01, 0x00, 0x00, 0x00, 0x00, 0x00, 
        0x00, 0xe0, 0x01, 0x00, 0x00, 0x00, 0x00, 0x00, 0x00, 
        0x80, 0x01, 0x00, 0x00, 0x00, 0x00, 0x00, 0x00, 0x00, 
        0x01, 0x00, 0x00, 0x00, 0x00, 0x00, 0x00, 0x00, 0x00, 
        0x00, 0x00, 0x00, 0x00, 0x00, 0x00, 0x00, 0x00, 0x00, 
        0x00, 0x00, 0x00, 0x00, 0x00, 0x00, 0x00, 0x00, 0x00, 
        0x00, 0x00, 0x00, 0x00, 0x00, 0x00, 0x00, 0x00, 0x00, 
        0x00, 0x00, 0x00, 0x00, 0x00, 0x00, 0x00, 0x00, 0x00, 
        0x00, 0x00, 0x00, 0x00, 0x00, 0x00, 0x00, 0x00, 0x00, 
        0x00, 0x00, 0x00, 0x00, 0x00, 0x00};

