#define Xbitmap_width 64
#define Xbitmap_height 48
static unsigned char Xbitmap_bits[] = {
        0x00, 0x00, 0x00, 0x00, 0x00, 0x00, 0x00, 0x00, 0x00, 
        0x00, 0x00, 0x00, 0x00, 0x00, 0x00, 0x00, 0x00, 0x00, 
        0x00, 0x00, 0x00, 0x00, 0x00, 0x00, 0x00, 0x00, 0x00, 
        0x00, 0x00, 0x00, 0x00, 0x00, 0x00, 0x00, 0x00, 0x00, 
        0x00, 0x00, 0x00, 0x00, 0xe0, 0xff, 0xff, 0xff, 0xff, 
        0xff, 0xff, 0x07, 0x20, 0x00, 0x00, 0x00, 0x00, 0x00, 
        0x00, 0x04, 0x20, 0x00, 0x00, 0x00, 0x00, 0x00, 0x00, 
        0x04, 0x20, 0xfc, 0x03, 0x00, 0x00, 0x00, 0x00, 0x04, 
        0x20, 0xfc, 0x03, 0x00, 0x00, 0x00, 0x00, 0x04, 0x20, 
        0xfc, 0x03, 0x00, 0x00, 0x00, 0x00, 0x04, 0x20, 0xfc, 
        0x03, 0x00, 0x00, 0x00, 0x00, 0x04, 0x20, 0xfc, 0x03, 
        0x00, 0x00, 0x00, 0x00, 0x04, 0x20, 0xfc, 0x03, 0x00, 
        0x00, 0x00, 0x00, 0x04, 0x20, 0xfc, 0x03, 0x00, 0x00, 
        0x00, 0x00, 0x04, 0x20, 0xfc, 0x03, 0x00, 0x00, 0x00, 
        0x00, 0x04, 0x20, 0xfc, 0x03, 0x00, 0x00, 0x00, 0x00, 
        0x04, 0x20, 0xfc, 0x03, 0x00, 0x00, 0x00, 0x00, 0x04, 
        0x20, 0xfc, 0x03, 0x00, 0x00, 0x00, 0x00, 0x04, 0x20, 
        0xfc, 0x03, 0x00, 0x00, 0x00, 0x00, 0x04, 0x20, 0xfc, 
        0x03, 0x00, 0x00, 0x00, 0x00, 0x04, 0x20, 0xfc, 0x03, 
        0x00, 0x00, 0x00, 0x00, 0x04, 0x20, 0xfc, 0x03, 0x00, 
        0x00, 0x00, 0x00, 0x04, 0x20, 0xfc, 0x03, 0x00, 0x00, 
        0x00, 0x00, 0x04, 0x20, 0xfc, 0x03, 0x00, 0x00, 0x00, 
        0x00, 0x04, 0x20, 0xfc, 0x03, 0x00, 0x00, 0x00, 0x00, 
        0x04, 0x20, 0xfc, 0x03, 0x00, 0x00, 0x00, 0x00, 0x04, 
        0x20, 0xfc, 0x03, 0x00, 0x00, 0x00, 0x00, 0x04, 0x20, 
        0xfc, 0x03, 0x00, 0x00, 0x00, 0x00, 0x04, 0x20, 0xfc, 
        0x03, 0x00, 0x00, 0x00, 0x00, 0x04, 0x20, 0xfc, 0x03, 
        0x00, 0x00, 0x00, 0x00, 0x04, 0x20, 0xfc, 0x03, 0x00, 
        0x00, 0x00, 0x00, 0x04, 0x20, 0xfc, 0x03, 0x00, 0x00, 
        0x00, 0x00, 0x04, 0x20, 0xfc, 0x03, 0x00, 0x00, 0x00, 
        0x00, 0x04, 0x20, 0xfc, 0x03, 0x00, 0x00, 0x00, 0x00, 
        0x04, 0x20, 0xfc, 0x03, 0x00, 0x00, 0x00, 0x00, 0x04, 
        0x20, 0xfc, 0x03, 0x00, 0x00, 0x00, 0x00, 0x04, 0x20, 
        0xfc, 0x03, 0x00, 0x00, 0x00, 0x00, 0x04, 0x20, 0xfc, 
        0x03, 0x00, 0x00, 0x00, 0x00, 0x04, 0x20, 0xfc, 0x03, 
        0x00, 0x00, 0x00, 0x00, 0x04, 0x20, 0x00, 0x00, 0x00, 
        0x00, 0x00, 0x00, 0x04, 0x20, 0x00, 0x00, 0x00, 0x00, 
        0x00, 0x00, 0x04, 0xe0, 0xff, 0xff, 0xff, 0xff, 0xff, 
        0xff, 0x07, 0x00, 0x00, 0x00, 0x00, 0x00, 0x00, 0x00, 
        0x00, 0x00, 0x00, 0x00, 0x00, 0x00, 0x00, 0x00, 0x00, 
        0x00, 0x00, 0x00, 0x00, 0x00, 0x00, 0x00, 0x00, 0x00, 
        0x00, 0x00, 0x00, 0x00, 0x00, 0x00, 0x00, 0x00, 0x00, 
        0x00, 0x00, 0x00, 0x00, 0x00, 0x00};
