#define RIGHT_ARROW_width 64
#define RIGHT_ARROW_height 48
static unsigned char RightArrow_bits[] = {
        0x00, 0x00, 0x00, 0x00, 0x00, 0x00, 0x00, 0x00, 0x00, 
        0x00, 0x00, 0x00, 0x00, 0x00, 0x00, 0x00, 0x00, 0x00, 
        0x00, 0x00, 0x00, 0x00, 0x00, 0x00, 0x00, 0x00, 0x00, 
        0x00, 0x00, 0x00, 0x00, 0x00, 0x00, 0x00, 0x00, 0x00, 
        0x00, 0x00, 0x00, 0x00, 0x00, 0x00, 0x00, 0x00, 0x00, 
        0x00, 0x00, 0x00, 0x00, 0x00, 0x00, 0x80, 0x00, 0x00, 
        0x00, 0x00, 0x00, 0x00, 0x00, 0x80, 0x01, 0x00, 0x00, 
        0x00, 0x00, 0x00, 0x00, 0x80, 0x07, 0x00, 0x00, 0x00, 
        0x00, 0x00, 0x00, 0x80, 0x1f, 0x00, 0x00, 0x00, 0x00, 
        0x00, 0x00, 0x80, 0x3f, 0x00, 0x00, 0x00, 0x00, 0x00, 
        0x00, 0x80, 0xff, 0x00, 0x00, 0x00, 0x00, 0x00, 0x00, 
        0x80, 0xff, 0x01, 0x00, 0x00, 0x00, 0x00, 0x00, 0x80, 
        0xff, 0x07, 0x00, 0x00, 0x00, 0x00, 0x00, 0x80, 0xff, 
        0x1f, 0x00, 0x00, 0x00, 0x00, 0x00, 0x80, 0xff, 0x3f, 
        0x00, 0x00, 0x00, 0x00, 0x00, 0x80, 0xff, 0xff, 0x00, 
        0x00, 0x70, 0x60, 0xe0, 0xff, 0xff, 0xff, 0x01, 0x00, 
        0x70, 0x60, 0xe0, 0xff, 0xff, 0xff, 0x07, 0x00, 0x70, 
        0x60, 0xe0, 0xff, 0xff, 0xff, 0x1f, 0x00, 0x70, 0x60, 
        0xe0, 0xff, 0xff, 0xff, 0x3f, 0x00, 0x70, 0x60, 0xe0, 
        0xff, 0xff, 0xff, 0xff, 0x00, 0x70, 0x60, 0xe0, 0xff, 
        0xff, 0xff, 0xff, 0x01, 0x70, 0x60, 0xe0, 0xff, 0xff, 
        0xff, 0xff, 0x07, 0x70, 0x60, 0xe0, 0xff, 0xff, 0xff, 
        0xff, 0x01, 0x70, 0x60, 0xe0, 0xff, 0xff, 0xff, 0xff, 
        0x00, 0x70, 0x60, 0xe0, 0xff, 0xff, 0xff, 0x3f, 0x00, 
        0x70, 0x60, 0xe0, 0xff, 0xff, 0xff, 0x1f, 0x00, 0x70, 
        0x60, 0xe0, 0xff, 0xff, 0xff, 0x07, 0x00, 0x00, 0x00, 
        0x00, 0x80, 0xff, 0xff, 0x01, 0x00, 0x00, 0x00, 0x00, 
        0x80, 0xff, 0xff, 0x00, 0x00, 0x00, 0x00, 0x00, 0x80, 
        0xff, 0x3f, 0x00, 0x00, 0x00, 0x00, 0x00, 0x80, 0xff, 
        0x1f, 0x00, 0x00, 0x00, 0x00, 0x00, 0x80, 0xff, 0x07, 
        0x00, 0x00, 0x00, 0x00, 0x00, 0x80, 0xff, 0x01, 0x00, 
        0x00, 0x00, 0x00, 0x00, 0x80, 0xff, 0x00, 0x00, 0x00, 
        0x00, 0x00, 0x00, 0x80, 0x3f, 0x00, 0x00, 0x00, 0x00, 
        0x00, 0x00, 0x80, 0x1f, 0x00, 0x00, 0x00, 0x00, 0x00, 
        0x00, 0x80, 0x07, 0x00, 0x00, 0x00, 0x00, 0x00, 0x00, 
        0x80, 0x01, 0x00, 0x00, 0x00, 0x00, 0x00, 0x00, 0x80, 
        0x00, 0x00, 0x00, 0x00, 0x00, 0x00, 0x00, 0x00, 0x00, 
        0x00, 0x00, 0x00, 0x00, 0x00, 0x00, 0x00, 0x00, 0x00, 
        0x00, 0x00, 0x00, 0x00, 0x00, 0x00, 0x00, 0x00, 0x00, 
        0x00, 0x00, 0x00, 0x00, 0x00, 0x00, 0x00, 0x00, 0x00, 
        0x00, 0x00, 0x00, 0x00, 0x00, 0x00, 0x00, 0x00, 0x00, 
        0x00, 0x00, 0x00, 0x00, 0x00, 0x00, 0x00, 0x00, 0x00, 
        0x00, 0x00, 0x00, 0x00, 0x00, 0x00};

